<?xml version="1.0" encoding="UTF-8" standalone="no"?>
<!-- Created with Inkscape (http://www.inkscape.org/) -->

<svg
   width="256.27393"
   height="123.16624"
   viewBox="0 0 256.27393 123.16625"
   version="1.1"
   id="svg5"
   xmlns="http://www.w3.org/2000/svg"
   xmlns:svg="http://www.w3.org/2000/svg">
  <defs
     id="defs2" />
  <g
     id="layer1"
     transform="translate(48.230638,3.1662555)">
    <g
       aria-label="e"
       id="text236"
       style="font-weight:bold;font-size:85.3333px;-inkscape-font-specification:'sans-serif Bold';fill:#06d6a0;fill-opacity:1"
       transform="matrix(1.7317878,0,0,2.4882079,-49.673793,-61.158301)">
      <path
         d="M 51.360282,50.931741 H 16.314654 q 0.340248,5.499997 4.25311,8.416663 3.955392,2.916665 11.610991,2.916665 4.848545,0 9.399373,-1.708332 4.550828,-1.708333 7.187756,-3.666665 h 1.701244 v 12.041661 q -5.188794,2.041666 -9.782153,2.958332 -4.593359,0.916667 -10.164933,0.916667 -14.375513,0 -22.0311109,-6.333331 -7.6555984,-6.333331 -7.6555984,-18.041659 0,-11.583329 7.2302873,-18.333326 7.272818,-6.791664 19.904556,-6.791664 11.653521,0 17.522813,5.791665 5.869293,5.749997 5.869293,16.583326 z M 36.134147,42.140078 q -0.127594,-4.708332 -2.381742,-7.083331 -2.254149,-2.374999 -7.017631,-2.374999 -4.423235,0 -7.272819,2.249999 -2.849584,2.25 -3.189833,7.208331 z"
         id="path503"
         style="stroke-width:1.01032;fill:#06d6a0;fill-opacity:1" />
    </g>
    <g
       aria-label="Z"
       transform="scale(1.0752127,0.93004854)"
       id="text290"
       style="font-weight:bold;font-size:176.503px;-inkscape-font-specification:'sans-serif Bold';stroke-width:2.0684;fill:#06d6a0;fill-opacity:1">
      <path
         d="M 136.79344,129.02551 H 0.39567806 L 21.138702,95.379904 64.343544,25.5196 c -36.232237,-1.706291 -84.110991,-9.358228 -89.765063,0.397891 l 23.3810257,-29.3218902 113.9407933,1.1e-6 -0.29448,28.4090471 -45.202444,79.341141 70.382564,0.23814 z"
         id="path404"
         style="fill:#06d6a0;fill-opacity:1" />
    </g>
    <g
       aria-label="P"
       transform="scale(1.0250304,0.97558083)"
       id="text294"
       style="font-weight:bold;font-size:144.161px;-inkscape-font-specification:'sans-serif Bold';stroke-width:1.68939;fill:#06d6a0;fill-opacity:1">
      <path
         d="m 202.96304,29.838314 q 0,7.039111 -2.46369,13.796658 -2.46368,6.687156 -7.03911,11.262578 -6.26481,6.194418 -14.00783,9.362018 -7.67263,3.1676 -19.14638,3.1676 H 143.48255 V 101.56686 H 116.45237 V -3.245508 h 44.48718 q 9.99554,0 16.82348,1.7597778 6.89832,1.68938664 12.17766,5.1385511 6.3352,4.1530755 9.64358,10.6290581 3.37877,6.475982 3.37877,15.556435 z m -27.94527,0.63352 q 0,-4.43464 -2.3933,-7.60224 -2.39329,-3.237991 -5.56089,-4.505031 -4.22347,-1.689387 -8.23576,-1.830169 -4.0123,-0.211173 -10.69945,-0.211173 h -4.64582 v 31.394435 h 7.74303 q 6.89833,0 11.33297,-0.844693 4.50503,-0.844693 7.53184,-3.378773 2.60448,-2.252516 3.73073,-5.349725 1.19665,-3.1676 1.19665,-7.672631 z"
         id="path861"
         style="fill:#06d6a0;fill-opacity:1" />
    </g>
    <rect
       style="fill:#06d6a0;fill-opacity:1"
       id="rect924"
       width="89.100258"
       height="24.92539"
       x="12.224982"
       y="-1.2253188" />
  </g>
</svg>
